<mxfile host="app.diagrams.net" modified="2021-05-02T22:41:41.861Z" agent="5.0 (Windows)" etag="2BT7RBcSs1D8p0i3Txht" version="14.6.9" type="github">
  <diagram id="0wPQk6ujesxeyPdlvdDz" name="Page-1">
    <mxGraphModel dx="2044" dy="1086" grid="1" gridSize="10" guides="1" tooltips="1" connect="1" arrows="1" fold="1" page="1" pageScale="1" pageWidth="827" pageHeight="1169" math="0" shadow="0">
      <root>
        <mxCell id="0" />
        <mxCell id="1" parent="0" />
        <mxCell id="ws90UyperbxyrdKR0zJr-36" value="conversation" style="swimlane;fontStyle=0;childLayout=stackLayout;horizontal=1;startSize=26;fillColor=#f5f5f5;horizontalStack=0;resizeParent=1;resizeParentMax=0;resizeLast=0;collapsible=1;marginBottom=0;strokeColor=#666666;fontColor=#333333;" parent="1" vertex="1">
          <mxGeometry x="320" y="200" width="140" height="90" as="geometry">
            <mxRectangle x="380" y="340" width="100" height="26" as="alternateBounds" />
          </mxGeometry>
        </mxCell>
        <mxCell id="ws90UyperbxyrdKR0zJr-37" value="-id" style="text;align=left;verticalAlign=top;spacingLeft=4;spacingRight=4;overflow=hidden;rotatable=0;points=[[0,0.5],[1,0.5]];portConstraint=eastwest;fillColor=#f5f5f5;strokeColor=#666666;fontColor=#333333;" parent="ws90UyperbxyrdKR0zJr-36" vertex="1">
          <mxGeometry y="26" width="140" height="64" as="geometry" />
        </mxCell>
        <mxCell id="ws90UyperbxyrdKR0zJr-57" style="edgeStyle=orthogonalEdgeStyle;rounded=0;orthogonalLoop=1;jettySize=auto;html=1;entryX=1;entryY=0.737;entryDx=0;entryDy=0;entryPerimeter=0;" parent="1" source="ws90UyperbxyrdKR0zJr-44" target="ws90UyperbxyrdKR0zJr-50" edge="1">
          <mxGeometry relative="1" as="geometry" />
        </mxCell>
        <mxCell id="ws90UyperbxyrdKR0zJr-44" value="user" style="swimlane;fontStyle=0;childLayout=stackLayout;horizontal=1;startSize=26;fillColor=#f5f5f5;horizontalStack=0;resizeParent=1;resizeParentMax=0;resizeLast=0;collapsible=1;marginBottom=0;strokeColor=#666666;fontColor=#333333;" parent="1" vertex="1">
          <mxGeometry x="530" y="445" width="140" height="90" as="geometry">
            <mxRectangle x="380" y="340" width="100" height="26" as="alternateBounds" />
          </mxGeometry>
        </mxCell>
        <mxCell id="ws90UyperbxyrdKR0zJr-45" value="-id&#xa;-email&#xa;-password&#xa;" style="text;align=left;verticalAlign=top;spacingLeft=4;spacingRight=4;overflow=hidden;rotatable=0;points=[[0,0.5],[1,0.5]];portConstraint=eastwest;fillColor=#f5f5f5;strokeColor=#666666;fontColor=#333333;" parent="ws90UyperbxyrdKR0zJr-44" vertex="1">
          <mxGeometry y="26" width="140" height="64" as="geometry" />
        </mxCell>
        <mxCell id="ws90UyperbxyrdKR0zJr-49" value="messages" style="swimlane;fontStyle=0;childLayout=stackLayout;horizontal=1;startSize=26;fillColor=#f5f5f5;horizontalStack=0;resizeParent=1;resizeParentMax=0;resizeLast=0;collapsible=1;marginBottom=0;strokeColor=#666666;fontColor=#333333;" parent="1" vertex="1">
          <mxGeometry x="550" y="200" width="140" height="140" as="geometry">
            <mxRectangle x="380" y="340" width="100" height="26" as="alternateBounds" />
          </mxGeometry>
        </mxCell>
        <mxCell id="ws90UyperbxyrdKR0zJr-50" value="-user_id&#xa;-conversation-id&#xa;-read_at&#xa;" style="text;align=left;verticalAlign=top;spacingLeft=4;spacingRight=4;overflow=hidden;rotatable=0;points=[[0,0.5],[1,0.5]];portConstraint=eastwest;fillColor=#f5f5f5;strokeColor=#666666;fontColor=#333333;" parent="ws90UyperbxyrdKR0zJr-49" vertex="1">
          <mxGeometry y="26" width="140" height="114" as="geometry" />
        </mxCell>
        <mxCell id="ws90UyperbxyrdKR0zJr-54" value="messages" style="swimlane;fontStyle=0;childLayout=stackLayout;horizontal=1;startSize=26;fillColor=#f5f5f5;horizontalStack=0;resizeParent=1;resizeParentMax=0;resizeLast=0;collapsible=1;marginBottom=0;strokeColor=#666666;fontColor=#333333;" parent="1" vertex="1">
          <mxGeometry x="90" y="190" width="140" height="140" as="geometry">
            <mxRectangle x="380" y="340" width="100" height="26" as="alternateBounds" />
          </mxGeometry>
        </mxCell>
        <mxCell id="ws90UyperbxyrdKR0zJr-55" value="-id&#xa;-from&#xa;-to&#xa;-content&#xa;-create_at&#xa;" style="text;align=left;verticalAlign=top;spacingLeft=4;spacingRight=4;overflow=hidden;rotatable=0;points=[[0,0.5],[1,0.5]];portConstraint=eastwest;fillColor=#f5f5f5;strokeColor=#666666;fontColor=#333333;" parent="ws90UyperbxyrdKR0zJr-54" vertex="1">
          <mxGeometry y="26" width="140" height="114" as="geometry" />
        </mxCell>
        <mxCell id="ws90UyperbxyrdKR0zJr-58" style="edgeStyle=orthogonalEdgeStyle;rounded=0;orthogonalLoop=1;jettySize=auto;html=1;entryX=0.999;entryY=0.598;entryDx=0;entryDy=0;entryPerimeter=0;" parent="1" source="ws90UyperbxyrdKR0zJr-50" target="ws90UyperbxyrdKR0zJr-37" edge="1">
          <mxGeometry relative="1" as="geometry" />
        </mxCell>
        <mxCell id="ws90UyperbxyrdKR0zJr-59" style="edgeStyle=orthogonalEdgeStyle;rounded=0;orthogonalLoop=1;jettySize=auto;html=1;entryX=-0.005;entryY=0.75;entryDx=0;entryDy=0;entryPerimeter=0;" parent="1" source="ws90UyperbxyrdKR0zJr-55" target="ws90UyperbxyrdKR0zJr-37" edge="1">
          <mxGeometry relative="1" as="geometry" />
        </mxCell>
      </root>
    </mxGraphModel>
  </diagram>
</mxfile>
